<?xml version="1.0" encoding="utf-8"?>
<!-- Generator: Adobe Illustrator 15.1.0, SVG Export Plug-In . SVG Version: 6.00 Build 0)  -->
<!DOCTYPE svg PUBLIC "-//W3C//DTD SVG 1.1//EN" "http://www.w3.org/Graphics/SVG/1.1/DTD/svg11.dtd">
<svg version="1.1" id="Layer_1" xmlns="http://www.w3.org/2000/svg" xmlns:xlink="http://www.w3.org/1999/xlink" x="0px" y="0px"
	 width="283.464px" height="283.465px" viewBox="0 0 283.464 283.465" enable-background="new 0 0 283.464 283.465"
	 xml:space="preserve">
<path fill="#ffffff" d="M276.61,134.689l-9.602-0.738c0.428-0.308,0.697-0.798,0.689-1.337l-0.025-1.864
	c-0.01-0.697-0.461-1.31-1.123-1.528l-4.814-1.584c-0.193-1.933-0.436-3.847-0.721-5.748l4.191-2.695
	c0.533-0.344,0.822-0.964,0.736-1.595l-0.25-1.844c-0.092-0.692-0.615-1.246-1.299-1.385l-4.93-0.985
	c-0.426-1.903-0.9-3.785-1.416-5.652l3.809-3.154c0.488-0.405,0.699-1.056,0.541-1.67l-0.471-1.803
	c-0.176-0.675-0.76-1.165-1.455-1.217l-5.057-0.391c-0.648-1.824-1.34-3.625-2.072-5.406l3.434-3.622
	c0.436-0.459,0.566-1.131,0.332-1.721l-0.682-1.733c-0.256-0.65-0.895-1.064-1.59-1.035l-5.059,0.219
	c-0.867-1.729-1.77-3.437-2.715-5.119l2.971-4.005c0.379-0.509,0.43-1.192,0.127-1.751l-0.887-1.639
	c-0.332-0.613-1.016-0.947-1.703-0.833l-5.041,0.831c-1.057-1.602-2.152-3.178-3.285-4.725l2.49-4.371
	c0.314-0.552,0.281-1.234-0.086-1.753l-1.076-1.519c-0.402-0.57-1.123-0.819-1.793-0.625l-4.898,1.432
	c-1.244-1.465-2.521-2.898-3.832-4.301l1.945-4.635c0.246-0.584,0.131-1.26-0.297-1.73l-1.25-1.379
	c-0.469-0.515-1.213-0.678-1.854-0.404l-4.717,2.021c-1.402-1.302-2.836-2.568-4.301-3.802l1.381-4.853
	c0.174-0.61-0.023-1.266-0.502-1.682l-1.408-1.22c-0.527-0.455-1.287-0.527-1.891-0.178l-4.416,2.558
	c-1.553-1.128-3.135-2.221-4.744-3.276l0.781-4.949c0.1-0.628-0.174-1.255-0.701-1.609l-1.543-1.042
	c-0.578-0.389-1.342-0.37-1.896,0.049l-4.078,3.072c-1.678-0.934-3.379-1.828-5.102-2.684l0.178-5.009
	c0.023-0.632-0.322-1.224-0.887-1.512l-1.658-0.849c-0.621-0.318-1.373-0.207-1.879,0.277l-3.652,3.513
	c-1.785-0.729-3.59-1.414-5.416-2.057l-0.42-4.962c-0.055-0.633-0.467-1.177-1.064-1.395l-1.748-0.644
	c-0.652-0.241-1.389-0.039-1.828,0.501l-3.209,3.931c-1.857-0.507-3.73-0.97-5.619-1.389l-1.016-4.882
	c-0.127-0.621-0.607-1.112-1.223-1.258l-1.814-0.428c-0.676-0.16-1.383,0.128-1.756,0.716l-2.713,4.285
	c-1.9-0.279-3.814-0.51-5.744-0.698l-1.594-4.728c-0.203-0.601-0.736-1.031-1.367-1.101l-1.852-0.208
	c-0.692-0.077-1.357,0.294-1.657,0.923l-2.172,4.567c-1.823-0.047-3.652-0.069-5.495-0.033c-0.522,0.01-1.037,0.054-1.559,0.07
	l-2.193-4.47c-0.279-0.57-0.865-0.927-1.499-0.915l-1.861,0.036c-0.697,0.014-1.31,0.468-1.525,1.131l-1.554,4.808
	c-1.937,0.2-3.857,0.448-5.765,0.74l-2.7-4.153c-0.346-0.533-0.968-0.816-1.597-0.728l-1.844,0.261
	c-0.691,0.096-1.244,0.621-1.378,1.306l-0.953,4.889c-1.914,0.435-3.814,0.914-5.696,1.439l-3.131-3.74
	c-0.407-0.487-1.058-0.694-1.672-0.53l-1.8,0.479c-0.673,0.18-1.159,0.766-1.211,1.46l-0.357,4.968
	c-1.847,0.664-3.673,1.371-5.476,2.12l-3.564-3.342c-0.463-0.435-1.136-0.561-1.725-0.325l-1.729,0.691
	c-0.646,0.259-1.059,0.901-1.024,1.598l0.238,4.923c-1.765,0.887-3.506,1.814-5.219,2.782l-3.9-2.859
	c-0.511-0.376-1.194-0.421-1.751-0.116l-1.634,0.896c-0.611,0.334-0.943,1.018-0.825,1.707l0.832,4.876
	c-1.641,1.089-3.252,2.218-4.835,3.384l-4.232-2.381c-0.551-0.312-1.235-0.276-1.751,0.095l-1.514,1.084
	c-0.568,0.405-0.815,1.126-0.617,1.794l1.401,4.701c-1.508,1.284-2.985,2.604-4.427,3.961l-4.441-1.837
	c-0.586-0.242-1.26-0.123-1.727,0.305l-1.373,1.259c-0.515,0.471-0.674,1.216-0.396,1.855l1.956,4.502
	c-1.341,1.454-2.648,2.941-3.917,4.462l-4.632-1.291c-0.612-0.169-1.265,0.029-1.68,0.511l-1.211,1.414
	c-0.453,0.531-0.521,1.288-0.17,1.89l2.451,4.179c-1.172,1.62-2.305,3.266-3.393,4.945l-4.68-0.715
	c-0.628-0.095-1.254,0.18-1.606,0.71l-1.034,1.549c-0.387,0.581-0.364,1.341,0.059,1.897l2.927,3.843
	c-0.969,1.75-1.891,3.525-2.773,5.326l-4.726-0.146c-0.636-0.02-1.223,0.331-1.509,0.897l-0.841,1.663
	c-0.314,0.621-0.198,1.376,0.287,1.874l3.321,3.418c-0.756,1.868-1.469,3.759-2.134,5.672l-4.641,0.419
	c-0.633,0.056-1.175,0.473-1.391,1.071l-0.634,1.751c-0.238,0.655-0.032,1.391,0.509,1.829l3.709,2.993
	c-0.523,1.944-0.997,3.904-1.424,5.884l-4.574,0.976c-0.619,0.132-1.106,0.613-1.25,1.231l-0.418,1.815
	c-0.158,0.68,0.134,1.382,0.725,1.752l4.021,2.515c-0.283,1.997-0.521,4.007-0.705,6.033l-4.405,1.511
	c-0.601,0.205-1.026,0.74-1.094,1.371l-0.198,1.852c-0.021,0.195,0.001,0.384,0.047,0.567l-8.336,0.661l6.647,55.133l12.871,2.043
	l0.18,0.457c0.257,0.648,0.894,1.063,1.591,1.033l4.637-0.201c0.914,1.844,1.87,3.664,2.874,5.453l-2.711,3.652
	c-0.377,0.512-0.425,1.193-0.124,1.752l0.885,1.637c0.332,0.613,1.017,0.951,1.704,0.836l4.596-0.758
	c1.127,1.713,2.295,3.393,3.504,5.045l-2.265,3.977c-0.314,0.551-0.28,1.234,0.086,1.754l1.076,1.52
	c0.403,0.568,1.124,0.82,1.793,0.623l4.466-1.303c1.324,1.568,2.682,3.105,4.085,4.602l-1.766,4.205
	c-0.246,0.586-0.13,1.26,0.296,1.73l1.253,1.381c0.467,0.516,1.212,0.678,1.853,0.404l4.29-1.838
	c1.499,1.393,3.034,2.748,4.601,4.063l-1.254,4.406c-0.174,0.613,0.022,1.268,0.502,1.682l1.41,1.221
	c0.527,0.459,1.284,0.529,1.886,0.18l4.021-2.328c1.66,1.209,3.345,2.381,5.069,3.504l-0.71,4.492
	c-0.099,0.625,0.174,1.254,0.701,1.609l1.544,1.041c0.578,0.391,1.34,0.371,1.897-0.049l3.717-2.799
	c1.788,0.998,3.606,1.947,5.448,2.855l-0.165,4.563c-0.023,0.635,0.323,1.225,0.889,1.516l1.657,0.848
	c0.622,0.316,1.376,0.205,1.878-0.277l3.338-3.211c1.901,0.777,3.822,1.51,5.769,2.191l0.382,4.523
	c0.054,0.633,0.469,1.178,1.063,1.396l1.751,0.643c0.653,0.24,1.389,0.041,1.829-0.5l2.945-3.607
	c1.967,0.537,3.957,1.023,5.965,1.461l0.931,4.486c0.13,0.623,0.607,1.113,1.225,1.26l1.812,0.428
	c0.679,0.16,1.384-0.127,1.758-0.717l2.502-3.955c2.011,0.293,4.036,0.537,6.077,0.729l1.472,4.367
	c0.202,0.602,0.735,1.031,1.366,1.102l1.851,0.207c0.693,0.076,1.36-0.293,1.657-0.922l2.021-4.25
	c1.781,0.043,3.568,0.068,5.367,0.033c0.667-0.012,1.323-0.064,1.986-0.088l2.046,4.172c0.281,0.568,0.865,0.926,1.499,0.914
	l1.864-0.037c0.697-0.012,1.307-0.467,1.521-1.131l1.459-4.506c2.023-0.215,4.033-0.477,6.025-0.789l2.535,3.9
	c0.346,0.531,0.969,0.816,1.598,0.727l1.846-0.26c0.689-0.098,1.24-0.619,1.377-1.305l0.898-4.629
	c1.99-0.455,3.955-0.963,5.904-1.516l2.975,3.557c0.408,0.486,1.063,0.693,1.674,0.529l1.801-0.479
	c0.674-0.18,1.16-0.768,1.209-1.463l0.344-4.744c1.904-0.688,3.783-1.42,5.641-2.203l3.414,3.203
	c0.463,0.434,1.135,0.563,1.725,0.324l1.729-0.691c0.648-0.26,1.061-0.898,1.025-1.596l-0.232-4.742
	c1.809-0.912,3.584-1.873,5.336-2.875l3.777,2.771c0.51,0.375,1.193,0.418,1.75,0.115l1.635-0.895
	c0.611-0.336,0.943-1.021,0.826-1.707l-0.813-4.76c1.664-1.111,3.297-2.262,4.898-3.453l4.146,2.332
	c0.553,0.313,1.236,0.273,1.754-0.094l1.514-1.086c0.566-0.406,0.813-1.127,0.615-1.793l-1.379-4.629
	c1.516-1.301,2.996-2.643,4.445-4.018l4.4,1.82c0.586,0.242,1.26,0.125,1.727-0.305l1.375-1.26c0.514-0.473,0.672-1.215,0.395-1.855
	l-1.951-4.492c1.336-1.457,2.637-2.949,3.902-4.473l4.641,1.293c0.613,0.17,1.268-0.029,1.68-0.512l1.215-1.414
	c0.453-0.529,0.52-1.289,0.168-1.889l-2.471-4.213c1.154-1.609,2.268-3.254,3.342-4.922l4.754,0.727
	c0.627,0.096,1.252-0.184,1.604-0.709l1.033-1.551c0.387-0.58,0.365-1.342-0.061-1.896l-2.986-3.924
	c0.846-1.539,1.645-3.107,2.424-4.688l3.061-0.477l2.076,0.063c0.508,0.018,0.977-0.209,1.293-0.588l12.695-1.975L276.61,134.689z
	 M140.019,28.257c60.019-1.159,109.821,45.301,113.472,104.654l-44.104-3.393l-2.191-32.613h-10.982l-1.939,28.87l-32.553-9.51
	l-2.799-48.078h-16.598l-2.428,41.703l-29.111-8.504l-3.399-47.752H82.551l-10.033,75.978l-41.694,3.31
	C34.329,75.452,81.451,29.389,140.019,28.257 M144.33,251.402c-42.504,0.822-79.898-22.242-99.41-56.85l27.094,4.301v7.43
	l68.849,18.754l68.845-18.754v-7.188l29.783-4.635C220.739,227.793,185.334,250.611,144.33,251.402 M168.239,199.154
	L168.239,199.154h-54.036l-0.003-0.002l-93.347-14.818l-5.288-43.863l111.286-8.843l2.619-0.189l22.916,0.032h0.008l117.062,9.004
	l-5.908,43.845L168.239,199.154z"/>
<polygon fill="#ffffff" points="46.563,172.335 42.437,172.335 42.437,157.772 37.704,168.847 34.549,168.847 29.816,157.772
	29.816,172.335 25.69,172.335 25.69,150.491 30.482,150.491 36.126,163.294 41.768,150.491 46.563,150.491 "/>
<rect x="51.347" y="150.491" fill="#ffffff" width="4.369" height="21.844"/>
<polygon fill="#ffffff" points="64.816,166.753 64.816,172.335 60.507,172.335 60.507,150.491 64.816,150.491 64.816,160.746
	72.37,150.491 77.497,150.491 70.792,159.108 77.831,172.335 72.916,172.335 67.88,162.839 "/>
<path fill="#ffffff" d="M92.083,172.335l-3.519-8.1h-3.519v8.1h-4.369v-21.844h11.135c2.548,0,4.308,1.76,4.308,4.309v5.126
	c0,2.063-1.153,3.611-2.973,4.126l3.64,8.283H92.083z M91.75,155.649c0-0.667-0.364-1.032-1.032-1.032h-5.673v5.552h5.673
	c0.668,0,1.032-0.364,1.032-1.03V155.649z"/>
<path fill="#ffffff" d="M111.495,150.37c2.548,0,4.309,1.76,4.309,4.309v13.47c0,2.547-1.761,4.307-4.309,4.307h-7.312
	c-2.548,0-4.308-1.76-4.308-4.307v-13.47c0-2.549,1.76-4.309,4.308-4.309H111.495z M111.435,155.528
	c0-0.667-0.364-1.032-1.033-1.032h-5.126c-0.668,0-1.032,0.365-1.032,1.032V167.3c0,0.667,0.364,1.031,1.032,1.031h5.126
	c0.669,0,1.033-0.364,1.033-1.031V155.528z"/>
<polygon fill="#ffffff" points="120.074,150.491 134.364,150.491 134.364,154.617 124.443,154.617 124.443,159.29 132.483,159.29
	132.483,163.416 124.443,163.416 124.443,172.335 120.074,172.335 "/>
<path fill="#ffffff" d="M138.637,172.335h-4.521l7.039-21.844h5.098l7.038,21.844h-4.702l-1.425-4.915h-7.07L138.637,172.335z
	 M141.307,163.294h4.671l-2.306-8.009L141.307,163.294z"/>
<path fill="#ffffff" d="M167.208,150.491c2.551,0,4.311,1.76,4.311,4.308v3.095c0,1.304-0.518,2.458-1.91,3.277
	c1.516,0.728,2.152,1.972,2.152,3.276v3.58c0,2.548-1.76,4.308-4.309,4.308h-11.287v-21.844H167.208z M166.116,159.229
	c0.791,0,1.033-0.182,1.033-1.032v-2.609c0-0.667-0.363-1.031-1.033-1.031h-5.582v4.672H166.116z M166.36,168.27
	c0.668,0,1.033-0.364,1.033-1.032v-3.155c0-0.91-0.549-0.971-1.398-0.971h-5.461v5.158H166.36z"/>
<path fill="#ffffff" d="M187.256,172.335l-3.518-8.1h-3.52v8.1h-4.369v-21.844h11.135c2.547,0,4.309,1.76,4.309,4.309v5.126
	c0,2.063-1.154,3.611-2.975,4.126l3.641,8.283H187.256z M186.924,155.649c0-0.667-0.363-1.032-1.033-1.032h-5.672v5.552h5.672
	c0.67,0,1.033-0.364,1.033-1.03V155.649z"/>
<rect x="195.563" y="150.491" fill="#ffffff" width="4.369" height="21.844"/>
<polygon fill="#ffffff" points="209.032,166.753 209.032,172.335 204.723,172.335 204.723,150.491 209.032,150.491 209.032,160.746
	216.584,150.491 221.713,150.491 215.008,159.108 222.047,172.335 217.131,172.335 212.096,162.839 "/>
<polygon fill="#ffffff" points="239.182,150.491 239.182,154.617 229.26,154.617 229.26,159.107 237.301,159.107 237.301,163.233
	229.26,163.233 229.26,168.209 239.182,168.209 239.182,172.335 224.893,172.335 224.893,150.491 "/>
<polygon fill="#ffffff" points="259.87,150.491 259.87,172.335 255.165,172.335 247.125,157.439 247.125,172.335 243.03,172.335
	243.03,150.491 247.733,150.491 255.772,165.387 255.772,150.491 "/>
</svg>
