<?xml version="1.0" standalone="no"?>
<!DOCTYPE svg PUBLIC "-//W3C//DTD SVG 20010904//EN"
 "http://www.w3.org/TR/2001/REC-SVG-20010904/DTD/svg10.dtd">
<svg version="1.0" xmlns="http://www.w3.org/2000/svg"
 width="700.000000pt" height="700.000000pt" viewBox="0 0 700.000000 700.000000"
 preserveAspectRatio="xMidYMid meet">
<metadata>
Created by potrace 1.14, written by Peter Selinger 2001-2017
</metadata>
<g transform="translate(0.000000,700.000000) scale(0.100000,-0.100000)"
fill="#000000" stroke="none">
<path d="M3259 6640 c-8 -5 -24 -37 -34 -70 -21 -69 -28 -74 -113 -83 l-52 -6
-38 57 c-32 50 -42 57 -73 60 -46 4 -76 -22 -82 -68 -11 -87 -15 -91 -82 -106
-82 -17 -78 -18 -115 31 -19 25 -44 48 -57 51 -29 8 -93 -14 -94 -32 -1 -8 -3
-23 -4 -34 -1 -11 -3 -38 -4 -59 -1 -38 -3 -40 -53 -59 -29 -11 -60 -23 -68
-26 -10 -4 -34 10 -65 38 -56 50 -76 55 -121 27 -31 -19 -31 -20 -27 -89 l3
-70 -64 -35 -65 -34 -56 39 c-61 44 -88 45 -126 7 -17 -17 -20 -28 -14 -58 17
-92 15 -100 -47 -143 l-56 -40 -61 34 -60 33 -36 -19 c-45 -25 -50 -46 -27
-122 15 -48 17 -63 7 -70 -7 -5 -33 -26 -58 -47 l-45 -38 -57 26 c-32 14 -61
25 -65 25 -18 0 -70 -53 -70 -71 0 -10 11 -43 25 -74 l24 -55 -46 -53 c-25
-28 -47 -54 -49 -55 -1 -2 -27 3 -57 12 -74 21 -82 21 -112 -11 -32 -36 -32
-51 5 -113 16 -28 30 -53 30 -57 0 -4 -61 -93 -80 -116 -3 -4 -32 -2 -64 4
-67 12 -95 0 -115 -49 -12 -29 -10 -34 29 -85 l41 -55 -33 -66 -32 -65 -75 -3
c-76 -3 -76 -3 -92 -38 -20 -42 -17 -53 36 -109 l42 -43 -25 -67 c-14 -36 -26
-67 -26 -68 -1 -1 -24 -5 -51 -8 -85 -10 -92 -13 -104 -46 -18 -52 -13 -65 39
-105 55 -42 55 -44 36 -124 -13 -57 -36 -80 -83 -80 -38 0 -73 -22 -79 -49 -3
-14 -8 -32 -10 -39 -5 -16 32 -51 81 -78 l36 -19 -6 -70 c-4 -38 -12 -75 -18
-81 -7 -7 -36 -19 -65 -29 -53 -17 -60 -27 -65 -82 0 -13 -8 -23 -17 -24 -8
-1 -28 -2 -45 -4 -16 -2 -54 -4 -83 -6 -29 -1 -55 -6 -58 -10 -2 -4 0 -40 6
-81 5 -40 12 -98 15 -128 4 -30 8 -66 10 -80 2 -14 7 -47 10 -75 8 -77 14
-120 30 -255 9 -69 17 -141 20 -160 4 -35 14 -117 20 -175 8 -72 37 -302 40
-320 2 -11 4 -34 4 -52 1 -30 3 -31 54 -38 28 -4 59 -9 67 -10 30 -5 165 -27
180 -28 8 -1 23 -11 32 -23 14 -17 26 -20 81 -17 l65 3 36 -65 c20 -37 33 -72
29 -78 -3 -7 -18 -28 -33 -47 -40 -52 -41 -64 -13 -105 24 -36 26 -37 72 -30
25 3 56 9 68 12 17 4 29 -7 64 -58 l42 -62 -32 -64 -33 -64 27 -34 c29 -39 43
-42 105 -20 23 8 48 15 54 15 6 0 33 -25 60 -56 l48 -55 -21 -51 c-29 -70 -27
-92 11 -121 l32 -25 50 20 c78 31 77 31 134 -20 l54 -47 -16 -62 c-18 -70 -15
-85 22 -110 37 -24 39 -24 103 11 l57 31 58 -42 c63 -44 62 -42 51 -136 -5
-41 5 -57 53 -82 26 -14 30 -12 81 25 29 22 54 40 56 40 1 0 32 -14 68 -32
l65 -32 0 -71 c0 -68 1 -71 31 -88 45 -25 59 -22 112 28 46 42 50 44 75 32 15
-8 46 -19 70 -27 23 -7 42 -16 42 -19 3 -59 16 -120 29 -133 9 -10 30 -20 47
-24 34 -7 46 1 95 65 l27 34 53 -14 c69 -17 66 -16 83 -18 9 -1 17 -18 21 -46
4 -24 6 -46 4 -47 -10 -10 27 -49 54 -56 49 -13 65 -4 102 54 l35 54 52 -7
c29 -3 61 -7 72 -7 11 0 24 -13 32 -33 8 -18 21 -49 29 -67 11 -28 22 -36 50
-42 50 -9 59 -3 91 65 l29 61 92 0 92 0 25 -55 c29 -59 46 -73 89 -69 40 4 52
17 72 79 9 30 20 57 24 59 4 3 39 8 77 11 l70 7 38 -57 38 -57 41 6 c51 8 63
23 72 85 3 26 9 52 13 58 4 6 39 18 77 26 64 15 71 15 82 1 7 -9 26 -32 44
-51 28 -31 36 -35 67 -29 57 9 68 30 71 137 1 16 8 29 19 32 9 2 41 14 69 26
l53 21 47 -45 c53 -50 59 -51 108 -31 37 16 38 19 36 107 l-2 56 69 36 c39 21
72 34 74 30 5 -12 95 -73 106 -73 19 0 72 35 77 51 3 9 2 34 -3 55 -15 72 -11
83 50 126 l57 40 57 -31 c32 -17 63 -31 69 -31 6 0 26 12 44 28 l33 28 -19 69
-19 69 53 48 c53 48 70 56 89 40 5 -5 27 -16 49 -25 44 -16 63 -11 97 24 24
24 23 38 -7 105 l-25 57 46 53 c25 30 50 54 55 54 5 0 36 -8 69 -17 l60 -16
30 28 c37 36 37 51 0 115 -16 28 -30 54 -30 57 0 4 17 33 38 64 l37 58 46 -5
c96 -12 104 -10 130 32 l22 36 -43 60 -42 61 27 57 c30 62 44 70 136 70 20 0
39 3 43 8 4 4 11 7 14 8 11 0 115 16 137 20 11 2 40 6 65 9 25 3 54 8 65 10
11 2 25 4 31 4 7 1 15 27 19 58 4 32 8 64 10 73 1 8 5 35 8 60 13 99 48 367
52 390 2 14 7 49 10 79 4 30 8 61 10 70 1 9 6 39 9 66 4 28 9 61 11 75 2 14 6
45 9 70 7 57 32 244 45 335 6 39 11 75 11 80 0 6 -24 12 -52 13 -29 2 -66 5
-83 7 -16 2 -44 3 -61 4 -31 1 -31 1 -26 49 5 56 0 61 -78 88 -30 10 -58 21
-62 24 -5 3 -11 37 -14 75 l-6 70 52 30 c62 36 71 50 63 99 -7 42 -19 51 -85
61 -63 10 -73 19 -90 92 l-15 61 54 48 c52 44 54 48 48 83 -9 51 -23 61 -96
67 -35 3 -67 9 -70 12 -8 10 -49 113 -49 124 0 5 21 31 46 58 42 45 46 53 40
84 -10 50 -29 61 -109 61 l-69 0 -33 62 -34 61 40 53 c45 60 47 71 18 118 -20
33 -20 33 -77 26 -31 -4 -65 -7 -75 -8 -12 -1 -33 18 -58 54 l-40 56 35 65 36
65 -23 34 c-28 42 -46 46 -119 23 -66 -19 -69 -18 -128 56 l-28 35 24 55 c30
71 30 82 -4 118 -32 34 -38 35 -106 4 -56 -25 -72 -27 -90 -9 -7 6 -29 26 -48
43 l-36 32 19 66 c10 37 16 73 13 80 -3 7 -19 23 -37 36 l-31 24 -66 -36 -67
-37 -56 37 -57 37 5 55 c4 30 8 63 11 72 3 10 -5 26 -21 40 -47 41 -59 41
-122 -6 l-58 -43 -62 31 -63 30 0 71 c0 75 -3 83 -37 103 -40 21 -65 14 -114
-34 l-47 -46 -63 23 c-35 12 -66 24 -68 25 -2 2 -5 31 -8 66 -6 73 -21 95 -71
104 -38 7 -33 11 -103 -73 l-26 -31 -69 16 -69 17 -15 69 c-14 64 -18 71 -48
83 -47 19 -67 10 -111 -56 l-39 -58 -54 8 c-29 4 -61 8 -70 8 -11 1 -23 22
-38 66 -24 71 -37 83 -90 81 -32 -1 -38 -6 -70 -66 l-35 -66 -85 0 -85 0 -28
58 c-15 31 -33 60 -39 64 -18 12 -72 14 -89 4z m436 -344 c130 -10 239 -23
300 -36 22 -5 56 -12 75 -15 106 -19 306 -78 444 -131 643 -251 1180 -750
1481 -1378 52 -110 155 -372 155 -398 0 -7 7 -31 14 -53 17 -47 61 -257 71
-330 3 -27 8 -61 10 -75 2 -14 6 -56 10 -93 l6 -68 -98 6 c-54 4 -109 8 -123
10 -14 2 -72 7 -130 10 -58 4 -123 8 -145 11 -22 2 -74 6 -115 9 -41 3 -97 7
-125 9 -27 3 -88 7 -135 11 -121 8 -215 16 -217 19 -2 2 -11 121 -28 386 -3
47 -8 105 -10 130 -2 25 -7 97 -11 160 -3 63 -8 117 -11 120 -2 3 -63 5 -134
6 -110 1 -129 -1 -133 -15 -3 -9 -8 -68 -11 -131 -6 -114 -8 -135 -19 -280 -3
-41 -8 -120 -12 -175 -3 -55 -8 -102 -10 -104 -5 -5 -791 222 -799 231 -2 2
-6 62 -9 133 -4 72 -9 157 -11 190 -3 33 -7 103 -10 155 -9 182 -17 325 -20
360 -2 19 -7 97 -10 173 -4 77 -8 146 -9 155 -3 15 -25 17 -205 17 -111 1
-204 -2 -206 -5 -1 -3 -6 -66 -10 -142 -4 -75 -8 -156 -10 -180 -2 -23 -6
-104 -10 -178 -4 -74 -8 -151 -10 -170 -2 -19 -6 -97 -10 -173 -8 -154 -9
-164 -17 -173 -4 -3 -37 4 -75 16 -37 11 -196 58 -352 103 -271 78 -284 83
-287 107 -1 14 -5 72 -9 130 -3 58 -8 121 -10 140 -2 19 -6 82 -10 140 -4 58
-8 121 -10 140 -2 19 -6 85 -10 145 -3 61 -8 121 -10 135 -2 14 -7 77 -11 140
-6 104 -11 166 -13 180 -1 3 -138 5 -306 5 l-305 0 -4 -25 c-5 -24 -10 -59
-21 -145 -11 -91 -47 -362 -51 -395 -3 -19 -7 -53 -10 -75 -2 -22 -7 -51 -9
-65 -5 -34 -24 -174 -30 -230 -3 -25 -8 -63 -11 -85 -9 -64 -12 -87 -19 -140
-3 -27 -12 -95 -20 -150 -8 -55 -17 -127 -21 -160 -3 -33 -7 -67 -9 -75 -1 -8
-6 -40 -10 -70 -3 -30 -8 -66 -10 -80 -2 -14 -7 -50 -10 -80 -9 -69 -13 -92
-18 -97 -5 -4 -52 -9 -177 -18 -52 -4 -111 -8 -130 -10 -19 -2 -75 -6 -125
-10 -49 -4 -106 -8 -125 -10 -19 -2 -78 -6 -130 -9 -52 -4 -106 -9 -120 -11
-14 -2 -69 -7 -122 -10 l-97 -6 4 53 c58 665 333 1255 805 1728 134 133 239
220 400 329 106 72 147 96 300 178 170 91 485 202 675 238 171 32 248 42 390
51 55 4 101 7 102 8 4 3 184 -3 258 -8z m167 -2550 c59 -4 120 -9 135 -11 15
-2 73 -6 128 -9 55 -4 116 -8 135 -11 19 -2 76 -7 125 -10 50 -3 113 -7 140
-10 28 -2 86 -7 130 -10 44 -4 98 -8 120 -10 38 -3 202 -15 275 -20 48 -3 206
-15 260 -20 53 -4 185 -15 255 -20 28 -2 86 -6 130 -10 44 -3 105 -8 135 -10
62 -5 195 -15 255 -20 22 -2 83 -7 135 -10 52 -4 111 -8 130 -10 19 -2 80 -6
135 -10 55 -4 107 -9 115 -11 8 -1 23 -3 34 -3 16 -1 18 -7 12 -53 -4 -29 -9
-69 -11 -88 -8 -64 -15 -115 -19 -135 -2 -11 -7 -49 -11 -85 -4 -36 -8 -67
-10 -70 -1 -3 -6 -36 -9 -75 -4 -38 -9 -77 -11 -85 -2 -8 -6 -37 -9 -65 -6
-46 -11 -88 -21 -155 -2 -14 -11 -79 -20 -145 -9 -66 -22 -123 -28 -127 -6 -3
-38 -10 -71 -14 -34 -4 -63 -8 -66 -9 -3 -1 -30 -5 -60 -9 -30 -5 -62 -10 -70
-11 -16 -3 -85 -14 -135 -21 -16 -3 -55 -9 -85 -14 -30 -5 -77 -12 -105 -15
-27 -4 -57 -8 -65 -10 -8 -3 -32 -7 -52 -10 -21 -3 -55 -7 -75 -10 -21 -3 -76
-12 -123 -20 -47 -7 -102 -16 -122 -19 -77 -12 -114 -17 -137 -21 -13 -2 -45
-7 -70 -11 -25 -4 -55 -8 -66 -10 -11 -3 -38 -7 -60 -9 -22 -3 -65 -10 -95
-15 -46 -8 -134 -22 -225 -35 -11 -1 -67 -10 -125 -20 -58 -9 -114 -18 -125
-19 -11 -2 -40 -6 -65 -10 -25 -4 -58 -10 -75 -12 -16 -2 -41 -6 -55 -9 -14
-2 -45 -7 -70 -10 -25 -3 -67 -10 -95 -15 -55 -10 -1425 -7 -1465 3 -13 4 -42
9 -65 12 -22 4 -53 8 -70 11 -16 3 -129 21 -250 40 -209 33 -237 38 -302 49
-16 2 -59 9 -98 15 -38 6 -169 27 -290 46 -121 20 -236 37 -255 40 -19 2 -60
9 -90 14 -111 19 -236 39 -280 45 -37 5 -152 23 -382 61 -16 2 -43 6 -60 9
-91 15 -85 9 -93 88 -4 40 -9 80 -10 90 -2 10 -6 46 -9 80 -4 34 -8 73 -11 87
-2 14 -7 48 -10 75 -9 81 -16 138 -20 170 -8 62 -25 202 -31 265 -4 36 -12
104 -18 152 l-12 87 45 5 c26 3 82 8 126 11 44 3 105 8 135 10 70 6 165 13
255 20 39 3 95 8 125 10 30 3 89 7 130 10 41 3 95 8 120 10 25 2 82 7 126 10
45 3 99 7 120 9 22 3 80 7 129 10 50 4 110 9 135 11 25 3 77 7 115 10 71 5
159 12 250 20 28 2 86 7 130 10 44 3 98 8 120 10 22 2 77 7 123 10 45 3 99 8
120 10 20 2 82 6 137 10 55 3 116 8 135 10 19 2 76 7 125 10 50 4 91 8 92 8 5
5 596 -2 685 -7z m-2637 -1570 c42 -5 294 -45 450 -71 50 -8 93 -15 98 -15 4
0 7 -42 7 -92 l0 -93 108 -28 c59 -16 121 -33 137 -38 17 -5 107 -30 200 -55
94 -24 193 -51 220 -59 45 -14 338 -94 535 -146 41 -11 165 -45 275 -75 110
-30 211 -55 225 -55 14 -1 158 36 320 81 162 45 329 90 370 101 41 11 284 77
540 147 l465 127 5 90 5 90 45 7 c25 4 61 10 80 12 42 6 225 34 260 41 14 2
75 11 135 20 61 9 130 20 155 25 25 5 46 7 48 5 5 -5 -100 -171 -164 -261
-107 -149 -288 -349 -420 -461 -27 -23 -62 -54 -79 -68 -138 -117 -403 -280
-604 -371 -176 -79 -467 -172 -596 -190 -16 -3 -50 -9 -75 -14 -218 -43 -612
-48 -860 -10 -202 32 -484 106 -605 160 -11 5 -66 30 -123 54 -320 140 -634
366 -892 642 -133 142 -300 368 -364 491 l-15 31 37 -8 c20 -5 55 -11 77 -14z"/>
<path d="M639 3285 c-1 0 -3 -120 -4 -267 -2 -296 -6 -279 65 -275 l35 2 0
162 c0 89 3 164 6 167 3 4 30 -50 59 -119 l53 -126 40 3 40 3 56 130 56 130 5
-175 5 -175 48 -1 47 0 -2 270 -3 270 -48 1 c-27 0 -55 -4 -62 -10 -7 -5 -42
-77 -77 -158 l-65 -148 -31 68 c-42 92 -76 171 -92 211 -7 17 -15 32 -19 33
-5 1 -109 5 -112 4z"/>
<path d="M1288 3282 c-22 -4 -24 -49 -18 -319 l5 -218 50 0 50 0 0 263 c0 145
-2 267 -5 270 -5 7 -54 9 -82 4z"/>
<path d="M1496 3280 c-1 -3 -2 -124 -2 -270 l1 -264 50 -1 50 0 3 70 c2 62 7
75 32 105 17 19 30 38 30 43 0 4 4 7 9 7 10 0 121 -195 121 -211 0 -10 -2 -10
72 -14 63 -3 63 -4 23 70 -12 22 -48 89 -80 148 l-57 108 29 37 c16 20 52 67
81 104 29 36 49 68 45 71 -5 2 -33 3 -63 1 -40 -2 -59 -8 -70 -22 -8 -11 -49
-66 -90 -123 l-75 -103 -5 124 -5 125 -48 0 c-27 0 -50 -2 -51 -5z"/>
<path d="M1996 3273 c-3 -7 -5 -128 -5 -268 0 -187 4 -255 12 -257 7 -1 31 -2
55 -2 l42 -1 0 100 0 101 42 -2 c47 -1 43 4 96 -115 l39 -85 56 -1 c47 0 54 2
49 16 -3 9 -23 54 -43 101 l-38 85 24 15 c38 22 51 69 49 166 -3 91 -16 123
-56 145 -33 18 -316 19 -322 2z m265 -100 c6 -38 2 -116 -6 -122 -5 -4 -41 -7
-80 -7 l-70 1 -3 68 -3 67 81 0 c44 0 81 -3 81 -7z"/>
<path d="M2539 3281 c-34 -14 -57 -39 -66 -71 -12 -50 -8 -391 5 -417 23 -42
72 -54 203 -51 l121 3 29 33 29 32 0 195 c0 106 -4 205 -10 219 -19 50 -59 64
-184 63 -61 0 -119 -3 -127 -6z m204 -100 c4 -1 7 -75 7 -166 0 -91 -3 -166
-7 -166 -30 -6 -150 -5 -158 2 -6 4 -10 66 -9 156 2 182 0 171 22 175 14 3
120 2 145 -1z"/>
<path d="M2971 3280 c-7 -6 -9 -529 -1 -531 3 -1 26 -3 53 -4 54 -2 49 -14 49
127 0 56 4 88 11 91 7 2 51 3 100 2 l87 -1 0 52 0 52 -82 -2 c-117 -3 -114 -4
-116 60 l0 54 122 0 123 0 2 50 c1 28 -2 50 -6 51 -29 4 -336 3 -342 -1z"/>
<path d="M3490 3280 c-6 -4 -108 -310 -165 -496 l-13 -41 56 1 56 1 14 50 c8
28 18 55 23 61 4 5 44 10 91 9 l82 0 18 -61 18 -61 49 1 c27 1 52 4 56 8 4 3
-32 125 -79 270 l-85 263 -57 0 c-31 0 -59 -2 -64 -5z m86 -214 c14 -48 23
-90 20 -93 -6 -7 -95 -8 -101 -2 -2 2 9 45 23 96 15 50 28 90 30 89 1 -2 14
-42 28 -90z"/>
<path d="M3859 3280 c-1 -3 -2 -123 -3 -268 -1 -225 1 -263 14 -266 8 -2 78
-3 155 -2 202 2 219 16 216 173 -1 40 -7 58 -27 82 -14 17 -21 31 -15 31 20 0
38 55 36 115 -2 80 -9 97 -47 120 -27 16 -54 19 -180 20 -81 0 -149 -2 -149
-5z m260 -104 c7 -5 11 -26 9 -54 l-3 -47 -80 -3 -81 -3 2 58 c1 32 2 58 3 58
84 0 140 -3 150 -9z m13 -228 c2 -33 0 -79 -5 -93 -4 -9 -94 -13 -152 -6 -6 0
-11 27 -11 61 l0 60 83 0 c79 0 83 -1 85 -22z"/>
<path d="M4351 3280 c-5 -3 -8 -124 -7 -270 l1 -264 52 -2 52 -2 3 101 3 101
41 0 41 1 44 -100 45 -100 57 0 c31 -1 57 0 57 1 0 2 -20 47 -45 101 l-44 98
23 14 c39 23 52 67 50 163 -1 93 -14 127 -56 149 -23 12 -300 20 -317 9z m260
-113 c6 -58 3 -109 -5 -115 -6 -3 -44 -7 -83 -7 l-73 -1 0 67 0 68 33 3 c55 5
127 -3 128 -15z"/>
<path d="M4835 3281 c-3 -2 -5 -124 -5 -271 l0 -266 53 0 52 1 0 269 0 270
-48 1 c-26 0 -50 -1 -52 -4z"/>
<path d="M5062 3280 c-6 -4 -9 -477 -3 -526 1 -13 85 -13 98 -1 4 5 6 35 5 68
-2 56 0 63 34 104 20 25 39 45 43 45 4 0 14 -15 22 -32 8 -18 34 -69 58 -113
l43 -80 58 -1 59 -1 -10 26 c-6 14 -23 49 -39 76 -15 28 -49 90 -74 138 l-46
89 75 96 c42 54 76 101 75 106 0 14 -99 15 -114 2 -7 -6 -48 -59 -91 -118 -44
-60 -82 -108 -86 -108 -4 0 -7 50 -7 110 0 61 -3 114 -6 118 -9 8 -84 10 -94
2z"/>
<path d="M5558 3285 c-4 0 -4 -535 1 -536 17 -4 328 -5 337 -2 7 3 11 24 10
51 l-1 47 -95 1 c-168 3 -150 -5 -150 64 l0 60 100 0 100 0 0 50 0 50 -99 0
-98 0 -2 55 c-1 51 1 55 22 55 12 1 67 2 122 3 l99 2 2 42 c2 24 -2 46 -9 50
-10 6 -94 8 -339 8z"/>
<path d="M6004 3275 c-2 -5 -3 -127 -1 -270 l2 -260 48 -2 c42 -2 47 0 48 20
0 12 1 93 1 181 0 87 3 155 7 150 5 -5 24 -38 43 -74 62 -116 118 -219 136
-249 16 -28 20 -30 72 -28 l55 2 1 268 c2 221 -1 267 -12 268 -8 1 -31 2 -51
3 l-38 1 1 -177 c0 -97 -3 -175 -7 -172 -4 2 -17 23 -29 46 -26 51 -93 175
-127 238 -14 25 -29 49 -34 54 -12 13 -110 14 -115 1z"/>
</g>
</svg>
